<?xml version="1.0" standalone="no"?>
<!DOCTYPE svg PUBLIC "-//W3C//DTD SVG 20010904//EN"
 "http://www.w3.org/TR/2001/REC-SVG-20010904/DTD/svg10.dtd">
<svg version="1.0" xmlns="http://www.w3.org/2000/svg"
 width="300.000000pt" height="300.000000pt" viewBox="0 0 300.000000 300.000000"
 preserveAspectRatio="xMidYMid meet">
<metadata>
Created by potrace 1.14, written by Peter Selinger 2001-2017
</metadata>
<g transform="translate(0.000000,300.000000) scale(0.100000,-0.100000)"
fill="#000000" stroke="none">
<path d="M935 2941 c-461 -6 -471 -6 -527 -29 -168 -68 -308 -239 -338 -412
-8 -45 -10 -357 -8 -1035 l3 -970 26 -71 c61 -168 179 -284 349 -346 l65 -23
995 3 c1079 3 1057 2 1160 58 135 74 239 202 275 341 23 87 22 2000 0 2088
-23 85 -68 164 -136 233 -66 68 -120 103 -218 141 l-66 25 -555 1 c-305 1
-766 -1 -1025 -4z m950 -286 c261 -67 444 -319 420 -580 -13 -134 -61 -240
-152 -336 -29 -31 -53 -59 -53 -62 0 -4 26 -7 58 -7 32 0 63 -5 70 -12 7 -7
12 -31 12 -55 l0 -43 69 0 68 0 19 -117 19 -118 3 113 c2 101 4 112 21 112 15
0 19 -11 25 -62 12 -120 24 -132 25 -26 l1 97 127 76 c70 42 134 74 143 73 13
-3 15 -49 15 -363 0 -359 0 -360 -21 -363 -13 -2 -69 26 -138 67 l-117 71
-129 0 -130 0 0 -188 c0 -154 -3 -192 -16 -210 l-15 -22 -772 0 c-683 0 -775
2 -795 16 -22 15 -22 17 -22 305 l0 289 -67 0 c-65 0 -69 -1 -85 -30 -32 -57
-52 -42 -118 90 -33 66 -60 122 -60 125 0 3 24 5 53 5 37 0 64 -7 96 -25 34
-20 57 -25 112 -25 l69 0 0 75 c0 67 -2 75 -19 75 -41 0 -158 70 -215 129
-258 272 -108 718 263 781 193 32 396 -70 487 -245 43 -84 58 -80 92 20 15 45
42 104 60 133 71 110 208 207 335 238 72 17 192 17 262 -1z"/>
<path d="M1619 2527 c-309 -105 -399 -486 -169 -716 166 -166 429 -168 600 -5
138 131 174 319 95 492 -92 201 -319 300 -526 229z m2 -104 c33 -20 59 -68 59
-110 0 -60 -64 -123 -125 -123 -72 0 -125 56 -125 134 0 39 5 51 35 81 30 30
42 35 81 35 25 0 59 -8 75 -17z m399 2 c37 -19 60 -62 60 -110 0 -73 -54 -125
-130 -125 -36 0 -48 6 -81 39 -34 34 -39 44 -39 86 0 42 5 52 39 86 32 33 45
39 80 39 23 0 55 -7 71 -15z m-394 -401 c26 -17 54 -72 54 -104 0 -32 -28 -87
-54 -104 -85 -55 -199 4 -199 104 0 100 114 159 199 104z m402 -2 c52 -34 67
-112 32 -169 -48 -79 -150 -82 -209 -7 -35 45 -23 135 23 174 36 29 110 30
154 2z"/>
<path d="M651 2410 c-69 -15 -132 -50 -186 -105 -205 -205 -102 -551 182 -610
130 -27 252 12 342 110 94 104 122 249 71 380 -60 155 -247 258 -409 225z
m-37 -105 c51 -34 58 -115 14 -162 -27 -29 -79 -39 -118 -23 -101 42 -70 200
40 200 22 0 51 -7 64 -15z m339 -5 c38 -30 52 -80 34 -123 -27 -63 -86 -84
-148 -51 -94 48 -55 194 51 194 22 0 48 -8 63 -20z m-331 -339 c28 -25 33 -36
33 -76 0 -40 -5 -51 -33 -76 -72 -64 -172 -20 -172 76 0 96 100 140 172 76z
m318 14 c37 -19 50 -43 50 -95 0 -90 -102 -134 -170 -72 -94 84 8 225 120 167z"/>
<path d="M1192 1868 c-36 -8 -47 -17 -79 -66 -20 -31 -52 -72 -71 -89 l-36
-33 202 0 201 0 -44 45 c-25 24 -61 69 -80 100 -20 30 -39 55 -43 54 -4 -1
-26 -5 -50 -11z"/>
<path d="M1736 1604 c-9 -8 -16 -31 -16 -49 0 -62 10 -65 216 -65 109 0 193 4
205 10 14 8 19 21 19 50 0 68 -7 70 -220 70 -158 0 -191 -3 -204 -16z"/>
<path d="M2026 876 c-39 -38 -29 -88 20 -106 43 -17 84 13 84 61 0 33 -19 56
-52 64 -21 5 -33 1 -52 -19z"/>
</g>
</svg>
